# Blender 4.2.1 LTS
# www.blender.org
mtllib probe_model.mtl
o Cylinder
v 0.000000 -0.750000 -0.500000
v 0.000000 0.750000 -0.500000
v 0.097545 -0.750000 -0.490393
v 0.097545 0.750000 -0.490393
v 0.191342 -0.750000 -0.461940
v 0.191342 0.750000 -0.461940
v 0.277785 -0.750000 -0.415735
v 0.277785 0.750000 -0.415735
v 0.353553 -0.750000 -0.353553
v 0.353553 0.750000 -0.353553
v 0.415735 -0.750000 -0.277785
v 0.415735 0.750000 -0.277785
v 0.461940 -0.750000 -0.191342
v 0.461940 0.750000 -0.191342
v 0.490393 -0.750000 -0.097545
v 0.490393 0.750000 -0.097545
v 0.500000 -0.750000 0.000000
v 0.500000 0.750000 -0.000000
v 0.490393 -0.750000 0.097545
v 0.490393 0.750000 0.097545
v 0.461940 -0.750000 0.191342
v 0.461940 0.750000 0.191342
v 0.415735 -0.750000 0.277785
v 0.415735 0.750000 0.277785
v 0.353553 -0.750000 0.353553
v 0.353553 0.750000 0.353553
v 0.277785 -0.750000 0.415735
v 0.277785 0.750000 0.415735
v 0.191342 -0.750000 0.461940
v 0.191342 0.750000 0.461940
v 0.097545 -0.750000 0.490393
v 0.097545 0.750000 0.490393
v 0.000000 -0.750000 0.500000
v 0.000000 0.750000 0.500000
v -0.097545 -0.750000 0.490393
v -0.097545 0.750000 0.490393
v -0.191342 -0.750000 0.461940
v -0.191342 0.750000 0.461940
v -0.277785 -0.750000 0.415735
v -0.277785 0.750000 0.415735
v -0.353553 -0.750000 0.353553
v -0.353553 0.750000 0.353553
v -0.415735 -0.750000 0.277785
v -0.415735 0.750000 0.277785
v -0.461940 -0.750000 0.191342
v -0.461940 0.750000 0.191342
v -0.490393 -0.750000 0.097545
v -0.490393 0.750000 0.097545
v -0.500000 -0.750000 0.000000
v -0.500000 0.750000 -0.000000
v -0.490393 -0.750000 -0.097545
v -0.490393 0.750000 -0.097545
v -0.461940 -0.750000 -0.191342
v -0.461940 0.750000 -0.191342
v -0.415735 -0.750000 -0.277785
v -0.415735 0.750000 -0.277785
v -0.353553 -0.750000 -0.353553
v -0.353553 0.750000 -0.353553
v -0.277785 -0.750000 -0.415735
v -0.277785 0.750000 -0.415735
v -0.191342 -0.750000 -0.461940
v -0.191342 0.750000 -0.461940
v -0.097545 -0.750000 -0.490393
v -0.097545 0.750000 -0.490393
v -0.326641 0.750000 -0.332623
v -0.224994 0.750000 -0.373372
v -0.114701 0.750000 -0.398465
v 0.000000 0.750000 -0.406937
v 0.114701 0.750000 -0.398465
v 0.224994 0.750000 -0.373372
v 0.326641 0.750000 -0.332623
v -0.362944 0.750000 -0.231964
v -0.250000 0.750000 -0.262149
v -0.127449 0.750000 -0.280736
v 0.000000 0.750000 -0.287013
v 0.127449 0.750000 -0.280736
v 0.250000 0.750000 -0.262149
v 0.362944 0.750000 -0.231964
v -0.385299 0.750000 -0.119107
v -0.265399 0.750000 -0.135129
v -0.135299 0.750000 -0.144996
v 0.000000 0.750000 -0.148327
v 0.135299 0.750000 -0.144996
v 0.265399 0.750000 -0.135129
v 0.385299 0.750000 -0.119107
v -0.392847 0.750000 -0.000000
v -0.270598 0.750000 -0.000000
v -0.137950 0.750000 -0.000000
v 0.000000 0.750000 -0.000000
v 0.137950 0.750000 -0.000000
v 0.270598 0.750000 -0.000000
v 0.392848 0.750000 -0.000000
v -0.385299 0.750000 0.119107
v -0.265399 0.750000 0.135129
v -0.135299 0.750000 0.144996
v 0.000000 0.750000 0.148327
v 0.135299 0.750000 0.144996
v 0.265399 0.750000 0.135129
v 0.385299 0.750000 0.119107
v -0.362944 0.750000 0.231964
v -0.250000 0.750000 0.262148
v -0.127449 0.750000 0.280736
v 0.000000 0.750000 0.287013
v 0.127449 0.750000 0.280736
v 0.250000 0.750000 0.262148
v 0.362944 0.750000 0.231964
v -0.326641 0.750000 0.332623
v -0.224994 0.750000 0.373372
v -0.114701 0.750000 0.398465
v 0.000000 0.750000 0.406937
v 0.114701 0.750000 0.398465
v 0.224994 0.750000 0.373372
v 0.326641 0.750000 0.332623
v 0.326641 -0.750000 -0.332623
v 0.224994 -0.750000 -0.373372
v 0.114701 -0.750000 -0.398465
v 0.000000 -0.750000 -0.406937
v -0.114701 -0.750000 -0.398465
v -0.224994 -0.750000 -0.373372
v -0.326641 -0.750000 -0.332623
v 0.362944 -0.750000 -0.231964
v 0.250000 -0.750000 -0.262149
v 0.127449 -0.750000 -0.280736
v 0.000000 -0.750000 -0.287013
v -0.127449 -0.750000 -0.280736
v -0.250000 -0.750000 -0.262149
v -0.362944 -0.750000 -0.231964
v 0.385299 -0.750000 -0.119107
v 0.265399 -0.750000 -0.135129
v 0.135299 -0.750000 -0.144996
v 0.000000 -0.750000 -0.148327
v -0.135299 -0.750000 -0.144996
v -0.265399 -0.750000 -0.135129
v -0.385299 -0.750000 -0.119107
v 0.392847 -0.750000 0.000000
v 0.270598 -0.750000 0.000000
v 0.137950 -0.750000 0.000000
v 0.000000 -0.750000 0.000000
v -0.137950 -0.750000 0.000000
v -0.270598 -0.750000 0.000000
v -0.392848 -0.750000 0.000000
v 0.385299 -0.750000 0.119107
v 0.265399 -0.750000 0.135129
v 0.135299 -0.750000 0.144996
v 0.000000 -0.750000 0.148327
v -0.135299 -0.750000 0.144996
v -0.265399 -0.750000 0.135129
v -0.385299 -0.750000 0.119107
v 0.362944 -0.750000 0.231964
v 0.250000 -0.750000 0.262148
v 0.127449 -0.750000 0.280736
v 0.000000 -0.750000 0.287013
v -0.127449 -0.750000 0.280736
v -0.250000 -0.750000 0.262148
v -0.362944 -0.750000 0.231964
v 0.326641 -0.750000 0.332623
v 0.224994 -0.750000 0.373372
v 0.114701 -0.750000 0.398465
v 0.000000 -0.750000 0.406937
v -0.114701 -0.750000 0.398465
v -0.224994 -0.750000 0.373372
v -0.326641 -0.750000 0.332623
vn 0.0980 -0.0000 -0.9952
vn 0.2903 -0.0000 -0.9569
vn 0.4714 -0.0000 -0.8819
vn 0.6344 -0.0000 -0.7730
vn 0.7730 -0.0000 -0.6344
vn 0.8819 -0.0000 -0.4714
vn 0.9569 -0.0000 -0.2903
vn 0.9952 -0.0000 -0.0980
vn 0.9952 -0.0000 0.0980
vn 0.9569 -0.0000 0.2903
vn 0.8819 -0.0000 0.4714
vn 0.7730 -0.0000 0.6344
vn 0.6344 -0.0000 0.7730
vn 0.4714 -0.0000 0.8819
vn 0.2903 -0.0000 0.9569
vn 0.0980 -0.0000 0.9952
vn -0.0980 -0.0000 0.9952
vn -0.2903 -0.0000 0.9569
vn -0.4714 -0.0000 0.8819
vn -0.6344 -0.0000 0.7730
vn -0.7730 -0.0000 0.6344
vn -0.8819 -0.0000 0.4714
vn -0.9569 -0.0000 0.2903
vn -0.9952 -0.0000 0.0980
vn -0.9952 -0.0000 -0.0980
vn -0.9569 -0.0000 -0.2903
vn -0.8819 -0.0000 -0.4714
vn -0.7730 -0.0000 -0.6344
vn -0.6344 -0.0000 -0.7730
vn -0.4714 -0.0000 -0.8819
vn -0.2903 -0.0000 -0.9569
vn -0.0980 -0.0000 -0.9952
vn -0.0000 1.0000 -0.0000
vn -0.0000 -1.0000 -0.0000
vt 1.000000 1.000000
vt 0.968750 0.500000
vt 1.000000 0.500000
vt 0.968750 1.000000
vt 0.937500 0.500000
vt 0.937500 1.000000
vt 0.906250 0.500000
vt 0.906250 1.000000
vt 0.875000 0.500000
vt 0.875000 1.000000
vt 0.843750 0.500000
vt 0.843750 1.000000
vt 0.812500 0.500000
vt 0.812500 1.000000
vt 0.781250 0.500000
vt 0.781250 1.000000
vt 0.750000 0.500000
vt 0.750000 1.000000
vt 0.718750 0.500000
vt 0.718750 1.000000
vt 0.687500 0.500000
vt 0.687500 1.000000
vt 0.656250 0.500000
vt 0.656250 1.000000
vt 0.625000 0.500000
vt 0.625000 1.000000
vt 0.593750 0.500000
vt 0.593750 1.000000
vt 0.562500 0.500000
vt 0.562500 1.000000
vt 0.531250 0.500000
vt 0.531250 1.000000
vt 0.500000 0.500000
vt 0.500000 1.000000
vt 0.468750 0.500000
vt 0.468750 1.000000
vt 0.437500 0.500000
vt 0.437500 1.000000
vt 0.406250 0.500000
vt 0.406250 1.000000
vt 0.375000 0.500000
vt 0.375000 1.000000
vt 0.343750 0.500000
vt 0.343750 1.000000
vt 0.312500 0.500000
vt 0.312500 1.000000
vt 0.281250 0.500000
vt 0.281250 1.000000
vt 0.250000 0.500000
vt 0.250000 1.000000
vt 0.218750 0.500000
vt 0.218750 1.000000
vt 0.187500 0.500000
vt 0.187500 1.000000
vt 0.156250 0.500000
vt 0.156250 1.000000
vt 0.125000 0.500000
vt 0.125000 1.000000
vt 0.093750 0.500000
vt 0.093750 1.000000
vt 0.062500 0.500000
vt 0.062500 1.000000
vt 0.031250 0.500000
vt 0.031250 1.000000
vt 0.000000 0.500000
vt 0.231086 1.000000
vt 0.264205 1.000000
vt 0.293478 1.000000
vt 0.321023 1.000000
vt 0.347862 1.000000
vt 0.189967 1.000000
vt 0.289931 1.000000
vt 0.321429 1.000000
vt 0.348958 1.000000
vt 0.402138 1.000000
vt 0.190341 1.000000
vt 0.265625 1.000000
vt 0.346774 1.000000
vt 0.401042 1.000000
vt 0.428977 1.000000
vt 0.195652 1.000000
vt 0.000000 1.000000
vt 0.285714 1.000000
vt 0.338710 1.000000
vt 0.403226 1.000000
vt 0.428571 1.000000
vt 0.456522 1.000000
vt 0.804348 1.000000
vt 0.714286 1.000000
vt 0.809659 1.000000
vt 0.661290 1.000000
vt 0.734375 1.000000
vt 0.653226 1.000000
vt 0.596774 1.000000
vt 0.598958 1.000000
vt 0.571429 1.000000
vt 0.571023 1.000000
vt 0.543478 1.000000
vt 0.810033 1.000000
vt 0.710069 1.000000
vt 0.651042 1.000000
vt 0.678571 1.000000
vt 0.597862 1.000000
vt 0.768914 1.000000
vt 0.735795 1.000000
vt 0.678977 1.000000
vt 0.706522 1.000000
vt 0.652138 1.000000
vt 0.768914 0.500000
vt 0.735795 0.500000
vt 0.706522 0.500000
vt 0.678977 0.500000
vt 0.652138 0.500000
vt 0.810033 0.500000
vt 0.710069 0.500000
vt 0.678571 0.500000
vt 0.651042 0.500000
vt 0.597862 0.500000
vt 0.809659 0.500000
vt 0.734375 0.500000
vt 0.653226 0.500000
vt 0.598958 0.500000
vt 0.571023 0.500000
vt 0.804348 0.500000
vt 0.714286 0.500000
vt 0.661290 0.500000
vt 0.596774 0.500000
vt 0.571429 0.500000
vt 0.543478 0.500000
vt 0.195652 0.500000
vt 0.285714 0.500000
vt 0.190341 0.500000
vt 0.338710 0.500000
vt 0.265625 0.500000
vt 0.346774 0.500000
vt 0.403226 0.500000
vt 0.401042 0.500000
vt 0.428571 0.500000
vt 0.428977 0.500000
vt 0.456522 0.500000
vt 0.189967 0.500000
vt 0.289931 0.500000
vt 0.348958 0.500000
vt 0.321429 0.500000
vt 0.402138 0.500000
vt 0.231086 0.500000
vt 0.264205 0.500000
vt 0.321023 0.500000
vt 0.293478 0.500000
vt 0.347862 0.500000
s 0
f 2/1/1 3/2/1 1/3/1
f 4/4/2 5/5/2 3/2/2
f 6/6/3 7/7/3 5/5/3
f 8/8/4 9/9/4 7/7/4
f 10/10/5 11/11/5 9/9/5
f 12/12/6 13/13/6 11/11/6
f 14/14/7 15/15/7 13/13/7
f 16/16/8 17/17/8 15/15/8
f 18/18/9 19/19/9 17/17/9
f 20/20/10 21/21/10 19/19/10
f 22/22/11 23/23/11 21/21/11
f 24/24/12 25/25/12 23/23/12
f 26/26/13 27/27/13 25/25/13
f 28/28/14 29/29/14 27/27/14
f 30/30/15 31/31/15 29/29/15
f 32/32/16 33/33/16 31/31/16
f 34/34/17 35/35/17 33/33/17
f 36/36/18 37/37/18 35/35/18
f 38/38/19 39/39/19 37/37/19
f 40/40/20 41/41/20 39/39/20
f 42/42/21 43/43/21 41/41/21
f 44/44/22 45/45/22 43/43/22
f 46/46/23 47/47/23 45/45/23
f 48/48/24 49/49/24 47/47/24
f 50/50/25 51/51/25 49/49/25
f 52/52/26 53/53/26 51/51/26
f 54/54/27 55/55/27 53/53/27
f 56/56/28 57/57/28 55/55/28
f 58/58/29 59/59/29 57/57/29
f 60/60/30 61/61/30 59/59/30
f 62/62/31 63/63/31 61/61/31
f 64/64/32 1/65/32 63/63/32
f 58/58/33 65/54/33 60/60/33
f 56/56/33 72/66/33 65/54/33
f 54/54/33 79/67/33 72/66/33
f 52/52/33 86/68/33 79/67/33
f 48/48/33 86/68/33 50/50/33
f 46/46/33 93/69/33 48/48/33
f 44/44/33 100/70/33 46/46/33
f 42/42/33 107/42/33 44/44/33
f 60/60/33 66/71/33 62/62/33
f 65/54/33 73/50/33 66/71/33
f 72/66/33 80/72/33 73/50/33
f 79/67/33 87/73/33 80/72/33
f 93/69/33 87/73/33 86/68/33
f 100/70/33 94/74/33 93/69/33
f 107/42/33 101/42/33 100/70/33
f 40/40/33 108/75/33 107/42/33
f 62/62/33 67/76/33 64/64/33
f 66/71/33 74/77/33 67/76/33
f 73/50/33 81/46/33 74/77/33
f 80/72/33 88/78/33 81/46/33
f 94/74/33 88/78/33 87/73/33
f 101/42/33 95/42/33 94/74/33
f 108/75/33 102/79/33 101/42/33
f 38/38/33 109/80/33 108/75/33
f 64/64/33 68/81/33 2/82/33
f 67/76/33 75/83/33 68/81/33
f 74/77/33 82/84/33 75/83/33
f 81/46/33 89/42/33 82/84/33
f 95/42/33 89/42/33 88/78/33
f 102/79/33 96/85/33 95/42/33
f 109/80/33 103/86/33 102/79/33
f 36/36/33 110/87/33 109/80/33
f 68/88/33 4/4/33 2/1/33
f 75/89/33 69/90/33 68/88/33
f 82/91/33 76/92/33 75/89/33
f 89/26/33 83/22/33 82/91/33
f 89/26/33 97/26/33 90/93/33
f 96/94/33 104/95/33 97/26/33
f 103/96/33 111/97/33 104/95/33
f 110/98/33 32/32/33 111/97/33
f 69/90/33 6/6/33 4/4/33
f 76/92/33 70/99/33 69/90/33
f 83/22/33 77/18/33 76/92/33
f 90/93/33 84/100/33 83/22/33
f 90/93/33 98/101/33 91/102/33
f 97/26/33 105/26/33 98/101/33
f 104/95/33 112/103/33 105/26/33
f 111/97/33 30/30/33 112/103/33
f 70/99/33 8/8/33 6/6/33
f 77/18/33 71/14/33 70/99/33
f 84/100/33 78/104/33 77/18/33
f 91/102/33 85/105/33 84/100/33
f 91/102/33 99/106/33 92/107/33
f 98/101/33 106/108/33 99/106/33
f 105/26/33 113/26/33 106/108/33
f 112/103/33 28/28/33 113/26/33
f 71/14/33 10/10/33 8/8/33
f 78/104/33 12/12/33 71/14/33
f 85/105/33 14/14/33 78/104/33
f 92/107/33 16/16/33 85/105/33
f 92/107/33 20/20/33 18/18/33
f 99/106/33 22/22/33 20/20/33
f 106/108/33 24/24/33 22/22/33
f 113/26/33 26/26/33 24/24/33
f 9/9/34 114/13/34 7/7/34
f 11/11/34 121/109/34 114/13/34
f 13/13/34 128/110/34 121/109/34
f 15/15/34 135/111/34 128/110/34
f 19/19/34 135/111/34 17/17/34
f 21/21/34 142/112/34 19/19/34
f 23/23/34 149/113/34 21/21/34
f 25/25/34 156/25/34 23/23/34
f 7/7/34 115/114/34 5/5/34
f 114/13/34 122/17/34 115/114/34
f 121/109/34 129/115/34 122/17/34
f 128/110/34 136/116/34 129/115/34
f 142/112/34 136/116/34 135/111/34
f 149/113/34 143/117/34 142/112/34
f 156/25/34 150/25/34 149/113/34
f 27/27/34 157/118/34 156/25/34
f 5/5/34 116/119/34 3/2/34
f 115/114/34 123/120/34 116/119/34
f 122/17/34 130/21/34 123/120/34
f 129/115/34 137/121/34 130/21/34
f 143/117/34 137/121/34 136/116/34
f 150/25/34 144/25/34 143/117/34
f 157/118/34 151/122/34 150/25/34
f 29/29/34 158/123/34 157/118/34
f 3/2/34 117/124/34 1/3/34
f 116/119/34 124/125/34 117/124/34
f 123/120/34 131/126/34 124/125/34
f 130/21/34 138/25/34 131/126/34
f 144/25/34 138/25/34 137/121/34
f 151/122/34 145/127/34 144/25/34
f 158/123/34 152/128/34 151/122/34
f 31/31/34 159/129/34 158/123/34
f 117/130/34 63/63/34 1/65/34
f 124/131/34 118/132/34 117/130/34
f 131/133/34 125/134/34 124/131/34
f 138/41/34 132/45/34 131/133/34
f 138/41/34 146/41/34 139/135/34
f 145/136/34 153/137/34 146/41/34
f 152/138/34 160/139/34 153/137/34
f 159/140/34 35/35/34 160/139/34
f 118/132/34 61/61/34 63/63/34
f 125/134/34 119/141/34 118/132/34
f 132/45/34 126/49/34 125/134/34
f 139/135/34 133/142/34 132/45/34
f 139/135/34 147/143/34 140/144/34
f 146/41/34 154/41/34 147/143/34
f 153/137/34 161/145/34 154/41/34
f 160/139/34 37/37/34 161/145/34
f 119/141/34 59/59/34 61/61/34
f 126/49/34 120/53/34 119/141/34
f 133/142/34 127/146/34 126/49/34
f 140/144/34 134/147/34 133/142/34
f 140/144/34 148/148/34 141/149/34
f 147/143/34 155/150/34 148/148/34
f 154/41/34 162/41/34 155/150/34
f 161/145/34 39/39/34 162/41/34
f 120/53/34 57/57/34 59/59/34
f 127/146/34 55/55/34 120/53/34
f 134/147/34 53/53/34 127/146/34
f 141/149/34 51/51/34 134/147/34
f 141/149/34 47/47/34 49/49/34
f 148/148/34 45/45/34 47/47/34
f 155/150/34 43/43/34 45/45/34
f 162/41/34 41/41/34 43/43/34
f 2/1/1 4/4/1 3/2/1
f 4/4/2 6/6/2 5/5/2
f 6/6/3 8/8/3 7/7/3
f 8/8/4 10/10/4 9/9/4
f 10/10/5 12/12/5 11/11/5
f 12/12/6 14/14/6 13/13/6
f 14/14/7 16/16/7 15/15/7
f 16/16/8 18/18/8 17/17/8
f 18/18/9 20/20/9 19/19/9
f 20/20/10 22/22/10 21/21/10
f 22/22/11 24/24/11 23/23/11
f 24/24/12 26/26/12 25/25/12
f 26/26/13 28/28/13 27/27/13
f 28/28/14 30/30/14 29/29/14
f 30/30/15 32/32/15 31/31/15
f 32/32/16 34/34/16 33/33/16
f 34/34/17 36/36/17 35/35/17
f 36/36/18 38/38/18 37/37/18
f 38/38/19 40/40/19 39/39/19
f 40/40/20 42/42/20 41/41/20
f 42/42/21 44/44/21 43/43/21
f 44/44/22 46/46/22 45/45/22
f 46/46/23 48/48/23 47/47/23
f 48/48/24 50/50/24 49/49/24
f 50/50/25 52/52/25 51/51/25
f 52/52/26 54/54/26 53/53/26
f 54/54/27 56/56/27 55/55/27
f 56/56/28 58/58/28 57/57/28
f 58/58/29 60/60/29 59/59/29
f 60/60/30 62/62/30 61/61/30
f 62/62/31 64/64/31 63/63/31
f 64/64/32 2/82/32 1/65/32
f 58/58/33 56/56/33 65/54/33
f 56/56/33 54/54/33 72/66/33
f 54/54/33 52/52/33 79/67/33
f 52/52/33 50/50/33 86/68/33
f 48/48/33 93/69/33 86/68/33
f 46/46/33 100/70/33 93/69/33
f 44/44/33 107/42/33 100/70/33
f 42/42/33 40/40/33 107/42/33
f 60/60/33 65/54/33 66/71/33
f 65/54/33 72/66/33 73/50/33
f 72/66/33 79/67/33 80/72/33
f 79/67/33 86/68/33 87/73/33
f 93/69/33 94/74/33 87/73/33
f 100/70/33 101/42/33 94/74/33
f 107/42/33 108/75/33 101/42/33
f 40/40/33 38/38/33 108/75/33
f 62/62/33 66/71/33 67/76/33
f 66/71/33 73/50/33 74/77/33
f 73/50/33 80/72/33 81/46/33
f 80/72/33 87/73/33 88/78/33
f 94/74/33 95/42/33 88/78/33
f 101/42/33 102/79/33 95/42/33
f 108/75/33 109/80/33 102/79/33
f 38/38/33 36/36/33 109/80/33
f 64/64/33 67/76/33 68/81/33
f 67/76/33 74/77/33 75/83/33
f 74/77/33 81/46/33 82/84/33
f 81/46/33 88/78/33 89/42/33
f 95/42/33 96/85/33 89/42/33
f 102/79/33 103/86/33 96/85/33
f 109/80/33 110/87/33 103/86/33
f 36/36/33 34/34/33 110/87/33
f 68/88/33 69/90/33 4/4/33
f 75/89/33 76/92/33 69/90/33
f 82/91/33 83/22/33 76/92/33
f 89/26/33 90/93/33 83/22/33
f 89/26/33 96/94/33 97/26/33
f 96/94/33 103/96/33 104/95/33
f 103/96/33 110/98/33 111/97/33
f 110/98/33 34/34/33 32/32/33
f 69/90/33 70/99/33 6/6/33
f 76/92/33 77/18/33 70/99/33
f 83/22/33 84/100/33 77/18/33
f 90/93/33 91/102/33 84/100/33
f 90/93/33 97/26/33 98/101/33
f 97/26/33 104/95/33 105/26/33
f 104/95/33 111/97/33 112/103/33
f 111/97/33 32/32/33 30/30/33
f 70/99/33 71/14/33 8/8/33
f 77/18/33 78/104/33 71/14/33
f 84/100/33 85/105/33 78/104/33
f 91/102/33 92/107/33 85/105/33
f 91/102/33 98/101/33 99/106/33
f 98/101/33 105/26/33 106/108/33
f 105/26/33 112/103/33 113/26/33
f 112/103/33 30/30/33 28/28/33
f 71/14/33 12/12/33 10/10/33
f 78/104/33 14/14/33 12/12/33
f 85/105/33 16/16/33 14/14/33
f 92/107/33 18/18/33 16/16/33
f 92/107/33 99/106/33 20/20/33
f 99/106/33 106/108/33 22/22/33
f 106/108/33 113/26/33 24/24/33
f 113/26/33 28/28/33 26/26/33
f 9/9/34 11/11/34 114/13/34
f 11/11/34 13/13/34 121/109/34
f 13/13/34 15/15/34 128/110/34
f 15/15/34 17/17/34 135/111/34
f 19/19/34 142/112/34 135/111/34
f 21/21/34 149/113/34 142/112/34
f 23/23/34 156/25/34 149/113/34
f 25/25/34 27/27/34 156/25/34
f 7/7/34 114/13/34 115/114/34
f 114/13/34 121/109/34 122/17/34
f 121/109/34 128/110/34 129/115/34
f 128/110/34 135/111/34 136/116/34
f 142/112/34 143/117/34 136/116/34
f 149/113/34 150/25/34 143/117/34
f 156/25/34 157/118/34 150/25/34
f 27/27/34 29/29/34 157/118/34
f 5/5/34 115/114/34 116/119/34
f 115/114/34 122/17/34 123/120/34
f 122/17/34 129/115/34 130/21/34
f 129/115/34 136/116/34 137/121/34
f 143/117/34 144/25/34 137/121/34
f 150/25/34 151/122/34 144/25/34
f 157/118/34 158/123/34 151/122/34
f 29/29/34 31/31/34 158/123/34
f 3/2/34 116/119/34 117/124/34
f 116/119/34 123/120/34 124/125/34
f 123/120/34 130/21/34 131/126/34
f 130/21/34 137/121/34 138/25/34
f 144/25/34 145/127/34 138/25/34
f 151/122/34 152/128/34 145/127/34
f 158/123/34 159/129/34 152/128/34
f 31/31/34 33/33/34 159/129/34
f 117/130/34 118/132/34 63/63/34
f 124/131/34 125/134/34 118/132/34
f 131/133/34 132/45/34 125/134/34
f 138/41/34 139/135/34 132/45/34
f 138/41/34 145/136/34 146/41/34
f 145/136/34 152/138/34 153/137/34
f 152/138/34 159/140/34 160/139/34
f 159/140/34 33/33/34 35/35/34
f 118/132/34 119/141/34 61/61/34
f 125/134/34 126/49/34 119/141/34
f 132/45/34 133/142/34 126/49/34
f 139/135/34 140/144/34 133/142/34
f 139/135/34 146/41/34 147/143/34
f 146/41/34 153/137/34 154/41/34
f 153/137/34 160/139/34 161/145/34
f 160/139/34 35/35/34 37/37/34
f 119/141/34 120/53/34 59/59/34
f 126/49/34 127/146/34 120/53/34
f 133/142/34 134/147/34 127/146/34
f 140/144/34 141/149/34 134/147/34
f 140/144/34 147/143/34 148/148/34
f 147/143/34 154/41/34 155/150/34
f 154/41/34 161/145/34 162/41/34
f 161/145/34 37/37/34 39/39/34
f 120/53/34 55/55/34 57/57/34
f 127/146/34 53/53/34 55/55/34
f 134/147/34 51/51/34 53/53/34
f 141/149/34 49/49/34 51/51/34
f 141/149/34 148/148/34 47/47/34
f 148/148/34 155/150/34 45/45/34
f 155/150/34 162/41/34 43/43/34
f 162/41/34 39/39/34 41/41/34
